# Blender v2.79 (sub 0) OBJ File: 'untitled.blend'
# www.blender.org
mtllib untitled.mtl
o Cylinder
v 2.537656 0.285726 1.252295
v 2.537656 2.285726 1.252295
v 2.537656 0.285726 0.252295
v 2.537656 2.285726 0.252295
v 3.244763 0.285726 0.545188
v 3.244763 2.285726 0.545188
v 3.537656 0.285726 1.252295
v 3.537656 2.285726 1.252295
v 3.244763 0.285726 1.959402
v 3.244763 2.285726 1.959402
v 2.537656 0.285726 2.252295
v 2.537656 2.285726 2.252295
v 1.830549 0.285726 1.959402
v 1.830549 2.285726 1.959402
v 1.537656 0.285726 1.252295
v 1.537656 2.285726 1.252295
v 1.830549 0.285726 0.545188
v 1.830549 2.285726 0.545188
vn 0.0000 -1.0000 0.0000
vn 0.0000 1.0000 0.0000
vn 0.3827 0.0000 -0.9239
vn 0.9239 0.0000 -0.3827
vn 0.9239 0.0000 0.3827
vn 0.3827 0.0000 0.9239
vn -0.3827 0.0000 0.9239
vn -0.9239 0.0000 0.3827
vn -0.9239 0.0000 -0.3827
vn -0.3827 0.0000 -0.9239
usemtl None
s off
f 1//1 3//1 5//1
f 2//2 6//2 4//2
f 3//3 4//3 6//3 5//3
f 1//1 5//1 7//1
f 2//2 8//2 6//2
f 5//4 6//4 8//4 7//4
f 1//1 7//1 9//1
f 2//2 10//2 8//2
f 7//5 8//5 10//5 9//5
f 1//1 9//1 11//1
f 2//2 12//2 10//2
f 9//6 10//6 12//6 11//6
f 1//1 11//1 13//1
f 2//2 14//2 12//2
f 11//7 12//7 14//7 13//7
f 1//1 13//1 15//1
f 2//2 16//2 14//2
f 13//8 14//8 16//8 15//8
f 1//1 15//1 17//1
f 2//2 18//2 16//2
f 15//9 16//9 18//9 17//9
f 1//1 17//1 3//1
f 2//2 4//2 18//2
f 17//10 18//10 4//10 3//10
